<svg width="512" height="512" viewBox="0 0 512 512" fill="none" xmlns="http://www.w3.org/2000/svg">
<path d="M226.162 9.94198C244.626 -0.647327 267.374 -0.647326 285.838 9.94198L455.162 107.052C473.626 117.641 485 137.211 485 158.39V352.61C485 373.789 473.626 393.359 455.162 403.948L285.838 501.058C267.374 511.647 244.626 511.647 226.162 501.058L56.838 403.948C38.3742 393.359 27 373.789 27 352.61V158.39C27 137.211 38.3742 117.641 56.838 107.052L226.162 9.94198Z" fill="#FFE600"/>
<path d="M113.717 235.013C116.75 233.274 120.487 233.274 123.52 235.013L151.335 250.967C154.368 252.706 156.236 255.921 156.236 259.401V291.308C156.236 294.787 154.368 298.002 151.335 299.742L123.52 315.695C120.487 317.435 116.75 317.435 113.717 315.695L85.9015 299.742C82.8685 298.002 81 294.787 81 291.308V259.401C81 255.921 82.8685 252.706 85.9015 250.967L113.717 235.013Z" fill="black"/>
<path d="M173.631 276.323C172.8 276.323 172.12 276.058 171.591 275.529C171.063 274.999 170.798 274.318 170.798 273.486V199.742C170.798 198.91 171.063 198.229 171.591 197.7C172.196 197.17 172.876 196.905 173.631 196.905H188.247C189.078 196.905 189.758 197.17 190.286 197.7C190.891 198.229 191.193 198.91 191.193 199.742V227.084H219.065V199.742C219.065 198.91 219.33 198.229 219.858 197.7C220.387 197.17 221.067 196.905 221.898 196.905H236.514C237.345 196.905 238.025 197.17 238.553 197.7C239.082 198.229 239.346 198.91 239.346 199.742V273.486C239.346 274.318 239.082 274.999 238.553 275.529C238.025 276.058 237.345 276.323 236.514 276.323H221.898C221.067 276.323 220.387 276.058 219.858 275.529C219.33 274.999 219.065 274.318 219.065 273.486V245.237H191.193V273.486C191.193 274.318 190.891 274.999 190.286 275.529C189.758 276.058 189.078 276.323 188.247 276.323H173.631Z" fill="black"/>
<path d="M258.055 276.323C257.299 276.323 256.619 276.058 256.015 275.529C255.486 274.923 255.222 274.243 255.222 273.486V199.742C255.222 198.91 255.486 198.229 256.015 197.7C256.619 197.17 257.299 196.905 258.055 196.905H273.237C274.068 196.905 274.748 197.17 275.277 197.7C275.881 198.229 276.183 198.91 276.183 199.742V273.486C276.183 274.318 275.881 274.999 275.277 275.529C274.748 276.058 274.068 276.323 273.237 276.323H258.055Z" fill="black"/>
<path d="M314.617 276.323C312.2 276.323 310.652 275.188 309.972 272.919L286.858 200.309L286.632 199.288C286.632 198.683 286.858 198.153 287.311 197.7C287.84 197.17 288.444 196.905 289.124 196.905H303.174C304.231 196.905 305.1 197.208 305.78 197.813C306.535 198.418 307.026 199.099 307.253 199.855L323.342 252.271L339.317 199.855C339.544 199.099 339.997 198.418 340.677 197.813C341.432 197.208 342.339 196.905 343.396 196.905H357.559C358.163 196.905 358.692 197.17 359.145 197.7C359.674 198.153 359.938 198.683 359.938 199.288L359.712 200.309L336.598 272.919C335.918 275.188 334.37 276.323 331.953 276.323H314.617Z" fill="black"/>
<path d="M373.349 276.323C372.593 276.323 371.914 276.058 371.309 275.529C370.781 274.923 370.516 274.243 370.516 273.486V199.742C370.516 198.91 370.781 198.229 371.309 197.7C371.914 197.17 372.593 196.905 373.349 196.905H426.261C427.092 196.905 427.772 197.17 428.301 197.7C428.829 198.229 429.094 198.91 429.094 199.742V210.406C429.094 211.163 428.829 211.843 428.301 212.449C427.772 212.978 427.092 213.243 426.261 213.243H390.118V228.559H423.768C424.599 228.559 425.279 228.861 425.808 229.466C426.337 229.996 426.601 230.677 426.601 231.509V241.379C426.601 242.135 426.337 242.816 425.808 243.421C425.279 243.951 424.599 244.215 423.768 244.215H390.118V259.985H427.168C427.998 259.985 428.678 260.25 429.207 260.78C429.736 261.309 430 261.99 430 262.822V273.486C430 274.243 429.736 274.923 429.207 275.529C428.678 276.058 427.998 276.323 427.168 276.323H373.349Z" fill="black"/>
<path d="M89.8018 223.539C89.5445 223.539 89.3128 223.45 89.107 223.273C88.9268 223.07 88.8367 222.842 88.8367 222.588V202.879H81.9655C81.7081 202.879 81.4765 202.79 81.2706 202.613C81.0905 202.41 81.0004 202.181 81.0004 201.928V197.857C81.0004 197.578 81.0905 197.349 81.2706 197.172C81.4765 196.994 81.7081 196.905 81.9655 196.905H102.734C103.017 196.905 103.248 196.994 103.429 197.172C103.609 197.349 103.699 197.578 103.699 197.857V201.928C103.699 202.207 103.609 202.435 103.429 202.613C103.248 202.79 103.017 202.879 102.734 202.879H95.8624V222.588C95.8624 222.842 95.7723 223.07 95.5922 223.273C95.412 223.45 95.1804 223.539 94.8973 223.539H89.8018Z" fill="black"/>
<path d="M108.172 223.539C107.889 223.539 107.657 223.45 107.477 223.273C107.297 223.095 107.207 222.867 107.207 222.588V197.857C107.207 197.578 107.297 197.349 107.477 197.172C107.683 196.994 107.915 196.905 108.172 196.905H113.152C113.435 196.905 113.667 196.994 113.847 197.172C114.053 197.349 114.156 197.578 114.156 197.857V207.026H123.652V197.857C123.652 197.578 123.742 197.349 123.922 197.172C124.102 196.994 124.334 196.905 124.617 196.905H129.597C129.88 196.905 130.111 196.994 130.291 197.172C130.472 197.349 130.562 197.578 130.562 197.857V222.588C130.562 222.867 130.472 223.095 130.291 223.273C130.111 223.45 129.88 223.539 129.597 223.539H124.617C124.334 223.539 124.102 223.45 123.922 223.273C123.742 223.095 123.652 222.867 123.652 222.588V213.114H114.156V222.588C114.156 222.867 114.053 223.095 113.847 223.273C113.667 223.45 113.435 223.539 113.152 223.539H108.172Z" fill="black"/>
<path d="M136.936 223.539C136.678 223.539 136.447 223.45 136.241 223.273C136.061 223.07 135.97 222.842 135.97 222.588V197.857C135.97 197.578 136.061 197.349 136.241 197.172C136.447 196.994 136.678 196.905 136.936 196.905H154.963C155.246 196.905 155.478 196.994 155.658 197.172C155.838 197.349 155.928 197.578 155.928 197.857V201.433C155.928 201.687 155.838 201.915 155.658 202.118C155.478 202.296 155.246 202.384 154.963 202.384H142.649V207.521H154.114C154.397 207.521 154.628 207.622 154.809 207.825C154.989 208.003 155.079 208.231 155.079 208.51V211.82C155.079 212.074 154.989 212.302 154.809 212.505C154.628 212.683 154.397 212.772 154.114 212.772H142.649V218.06H155.272C155.555 218.06 155.786 218.149 155.967 218.327C156.147 218.504 156.237 218.732 156.237 219.011V222.588C156.237 222.842 156.147 223.07 155.967 223.273C155.786 223.45 155.555 223.539 155.272 223.539H136.936Z" fill="black"/>
<path d="M170.788 316.63C170.532 316.63 170.302 316.544 170.097 316.371C169.917 316.174 169.828 315.952 169.828 315.705V291.661C169.828 291.39 169.917 291.168 170.097 290.995C170.302 290.822 170.532 290.736 170.788 290.736H174.939C175.554 290.736 176.003 291.007 176.285 291.55L183.049 303.202L189.814 291.55C190.096 291.007 190.544 290.736 191.159 290.736H195.272C195.554 290.736 195.784 290.822 195.964 290.995C196.169 291.168 196.271 291.39 196.271 291.661V315.705C196.271 315.977 196.169 316.198 195.964 316.371C195.784 316.544 195.554 316.63 195.272 316.63H190.698C190.416 316.63 190.173 316.544 189.968 316.371C189.788 316.198 189.699 315.977 189.699 315.705V301.833L185.394 309.565C185.061 310.132 184.612 310.415 184.049 310.415H182.05C181.717 310.415 181.448 310.341 181.243 310.194C181.038 310.046 180.858 309.836 180.705 309.565L176.362 301.833V315.705C176.362 315.952 176.272 316.174 176.092 316.371C175.913 316.544 175.683 316.63 175.401 316.63H170.788Z" fill="black"/>
<path d="M200.119 316.63C199.914 316.63 199.722 316.556 199.543 316.408C199.389 316.235 199.312 316.05 199.312 315.853C199.312 315.705 199.325 315.594 199.351 315.52L208.383 291.772C208.46 291.476 208.627 291.229 208.883 291.032C209.139 290.835 209.472 290.736 209.882 290.736H215.571C215.98 290.736 216.314 290.835 216.57 291.032C216.826 291.229 216.993 291.476 217.069 291.772L226.063 315.52L226.14 315.853C226.14 316.05 226.051 316.235 225.871 316.408C225.717 316.556 225.525 316.63 225.295 316.63H220.567C219.952 316.63 219.542 316.371 219.337 315.853L217.838 312.08H207.576L206.115 315.853C205.91 316.371 205.488 316.63 204.847 316.63H200.119ZM216.301 306.753L212.726 296.988L209.152 306.753H216.301Z" fill="black"/>
<path d="M230.131 316.63C229.874 316.63 229.644 316.544 229.439 316.371C229.259 316.174 229.17 315.952 229.17 315.705V291.661C229.17 291.39 229.259 291.168 229.439 290.995C229.644 290.822 229.874 290.736 230.131 290.736H234.974C235.255 290.736 235.486 290.822 235.665 290.995C235.845 291.168 235.934 291.39 235.934 291.661V299.873L243.045 291.439C243.352 290.97 243.852 290.736 244.544 290.736H250.079C250.309 290.736 250.501 290.822 250.655 290.995C250.809 291.143 250.886 291.316 250.886 291.513C250.886 291.685 250.847 291.833 250.77 291.957L241.546 303.128L251.462 315.409C251.565 315.508 251.616 315.656 251.616 315.853C251.616 316.05 251.539 316.235 251.385 316.408C251.232 316.556 251.04 316.63 250.809 316.63H245.082C244.467 316.63 243.955 316.383 243.545 315.89L235.934 306.753V315.705C235.934 315.977 235.845 316.198 235.665 316.371C235.486 316.544 235.255 316.63 234.974 316.63H230.131Z" fill="black"/>
<path d="M255.617 316.63C255.36 316.63 255.13 316.544 254.925 316.371C254.745 316.174 254.656 315.952 254.656 315.705V291.661C254.656 291.39 254.745 291.168 254.925 290.995C255.13 290.822 255.36 290.736 255.617 290.736H273.566C273.848 290.736 274.078 290.822 274.258 290.995C274.437 291.168 274.527 291.39 274.527 291.661V295.138C274.527 295.385 274.437 295.607 274.258 295.804C274.078 295.976 273.848 296.063 273.566 296.063H261.305V301.057H272.72C273.002 301.057 273.233 301.155 273.412 301.353C273.592 301.525 273.681 301.747 273.681 302.018V305.237C273.681 305.483 273.592 305.705 273.412 305.903C273.233 306.075 273.002 306.161 272.72 306.161H261.305V311.303H273.873C274.155 311.303 274.386 311.39 274.565 311.562C274.745 311.735 274.834 311.957 274.834 312.228V315.705C274.834 315.952 274.745 316.174 274.565 316.371C274.386 316.544 274.155 316.63 273.873 316.63H255.617Z" fill="black"/>
<path d="M280.164 316.63C279.908 316.63 279.677 316.544 279.472 316.371C279.293 316.174 279.203 315.952 279.203 315.705V291.661C279.203 291.39 279.293 291.168 279.472 290.995C279.677 290.822 279.908 290.736 280.164 290.736H290.619C293.975 290.736 296.589 291.476 298.46 292.955C300.356 294.41 301.304 296.482 301.304 299.17C301.304 300.896 300.881 302.364 300.035 303.572C299.19 304.78 298.024 305.705 296.538 306.346L301.803 315.446C301.88 315.594 301.919 315.73 301.919 315.853C301.919 316.05 301.829 316.235 301.65 316.408C301.496 316.556 301.317 316.63 301.112 316.63H296C295.257 316.63 294.731 316.297 294.424 315.631L290.042 307.493H286.122V315.705C286.122 315.977 286.019 316.198 285.814 316.371C285.635 316.544 285.404 316.63 285.122 316.63H280.164ZM290.542 302.24C291.721 302.24 292.617 301.969 293.232 301.427C293.847 300.859 294.155 300.083 294.155 299.096C294.155 298.11 293.847 297.333 293.232 296.766C292.643 296.174 291.746 295.878 290.542 295.878H286.122V302.24H290.542Z" fill="black"/>
<path d="M315.81 317C313.375 317 311.287 316.655 309.545 315.964C307.802 315.274 306.483 314.374 305.586 313.264C304.715 312.129 304.253 310.896 304.202 309.565C304.202 309.367 304.279 309.195 304.433 309.047C304.612 308.874 304.817 308.788 305.048 308.788H309.891C310.198 308.788 310.441 308.849 310.621 308.973C310.826 309.071 311.031 309.232 311.236 309.454C311.569 310.095 312.107 310.625 312.85 311.044C313.593 311.464 314.58 311.673 315.81 311.673C317.27 311.673 318.385 311.451 319.153 311.007C319.922 310.563 320.307 309.959 320.307 309.195C320.307 308.652 320.102 308.208 319.692 307.863C319.307 307.518 318.692 307.21 317.847 306.938C317.001 306.667 315.746 306.359 314.08 306.013C311.005 305.397 308.699 304.497 307.162 303.313C305.65 302.105 304.894 300.391 304.894 298.171C304.894 296.667 305.33 295.323 306.201 294.139C307.072 292.955 308.315 292.031 309.929 291.365C311.543 290.699 313.427 290.366 315.579 290.366C317.808 290.366 319.743 290.736 321.383 291.476C323.023 292.216 324.265 293.153 325.111 294.287C325.982 295.397 326.443 296.494 326.495 297.579C326.495 297.801 326.418 297.986 326.264 298.134C326.11 298.282 325.918 298.356 325.687 298.356H320.614C320.307 298.356 320.05 298.307 319.845 298.208C319.666 298.11 319.499 297.949 319.346 297.727C319.192 297.16 318.769 296.679 318.077 296.285C317.411 295.89 316.578 295.693 315.579 295.693C314.426 295.693 313.542 295.89 312.927 296.285C312.312 296.679 312.004 297.259 312.004 298.023C312.004 298.541 312.171 298.973 312.504 299.318C312.863 299.663 313.427 299.984 314.195 300.28C314.99 300.551 316.117 300.835 317.578 301.131C319.961 301.55 321.857 302.08 323.266 302.721C324.701 303.338 325.752 304.152 326.418 305.163C327.084 306.149 327.417 307.394 327.417 308.899C327.417 310.551 326.917 311.994 325.918 313.227C324.944 314.435 323.574 315.372 321.806 316.038C320.063 316.679 318.064 317 315.81 317Z" fill="black"/>
<path d="M332.225 316.63C331.969 316.63 331.738 316.544 331.533 316.371C331.354 316.174 331.264 315.952 331.264 315.705V291.661C331.264 291.39 331.354 291.168 331.533 290.995C331.738 290.822 331.969 290.736 332.225 290.736H342.987C346.267 290.736 348.842 291.464 350.712 292.919C352.608 294.373 353.557 296.494 353.557 299.281C353.557 302.043 352.621 304.127 350.751 305.533C348.88 306.914 346.292 307.604 342.987 307.604H338.413V315.705C338.413 315.977 338.31 316.198 338.105 316.371C337.926 316.544 337.695 316.63 337.414 316.63H332.225ZM342.795 302.499C343.922 302.499 344.806 302.228 345.447 301.685C346.087 301.118 346.408 300.292 346.408 299.207C346.408 298.196 346.1 297.394 345.485 296.803C344.896 296.186 343.999 295.878 342.795 295.878H338.298V302.499H342.795Z" fill="black"/>
<path d="M353.861 316.63C353.656 316.63 353.464 316.556 353.285 316.408C353.131 316.235 353.054 316.05 353.054 315.853C353.054 315.705 353.067 315.594 353.093 315.52L362.125 291.772C362.202 291.476 362.368 291.229 362.625 291.032C362.881 290.835 363.214 290.736 363.624 290.736H369.312C369.722 290.736 370.055 290.835 370.312 291.032C370.568 291.229 370.734 291.476 370.811 291.772L379.805 315.52L379.882 315.853C379.882 316.05 379.792 316.235 379.613 316.408C379.459 316.556 379.267 316.63 379.037 316.63H374.309C373.694 316.63 373.284 316.371 373.079 315.853L371.58 312.08H361.318L359.857 315.853C359.652 316.371 359.229 316.63 358.589 316.63H353.861ZM370.043 306.753L366.468 296.988L362.894 306.753H370.043Z" fill="black"/>
<path d="M393.38 317C389.715 317 386.846 316.149 384.77 314.448C382.72 312.721 381.631 310.231 381.503 306.975C381.477 306.309 381.465 305.224 381.465 303.72C381.465 302.191 381.477 301.081 381.503 300.391C381.631 297.185 382.746 294.719 384.847 292.992C386.948 291.242 389.792 290.366 393.38 290.366C395.634 290.366 397.659 290.736 399.452 291.476C401.246 292.191 402.655 293.227 403.68 294.583C404.731 295.915 405.269 297.481 405.295 299.281V299.355C405.295 299.552 405.205 299.725 405.025 299.873C404.872 299.996 404.692 300.058 404.487 300.058H399.299C398.965 300.058 398.709 299.996 398.53 299.873C398.351 299.725 398.197 299.466 398.069 299.096C397.71 297.838 397.146 296.963 396.378 296.47C395.609 295.952 394.597 295.693 393.341 295.693C390.318 295.693 388.754 297.32 388.652 300.576C388.626 301.242 388.614 302.265 388.614 303.646C388.614 305.027 388.626 306.075 388.652 306.79C388.754 310.046 390.318 311.673 393.341 311.673C394.597 311.673 395.622 311.414 396.416 310.896C397.21 310.354 397.761 309.478 398.069 308.27C398.171 307.9 398.312 307.653 398.491 307.53C398.671 307.382 398.94 307.308 399.299 307.308H404.487C404.718 307.308 404.91 307.382 405.064 307.53C405.243 307.678 405.32 307.863 405.295 308.085C405.269 309.885 404.731 311.464 403.68 312.82C402.655 314.152 401.246 315.187 399.452 315.927C397.659 316.642 395.634 317 393.38 317Z" fill="black"/>
<path d="M410.297 316.63C410.041 316.63 409.81 316.544 409.605 316.371C409.426 316.174 409.336 315.952 409.336 315.705V291.661C409.336 291.39 409.426 291.168 409.605 290.995C409.81 290.822 410.041 290.736 410.297 290.736H428.246C428.528 290.736 428.759 290.822 428.938 290.995C429.117 291.168 429.207 291.39 429.207 291.661V295.138C429.207 295.385 429.117 295.607 428.938 295.804C428.759 295.976 428.528 296.063 428.246 296.063H415.985V301.057H427.401C427.682 301.057 427.913 301.155 428.092 301.353C428.272 301.525 428.362 301.747 428.362 302.018V305.237C428.362 305.483 428.272 305.705 428.092 305.903C427.913 306.075 427.682 306.161 427.401 306.161H415.985V311.303H428.554C428.836 311.303 429.066 311.39 429.246 311.562C429.425 311.735 429.515 311.957 429.515 312.228V315.705C429.515 315.952 429.425 316.174 429.246 316.371C429.066 316.544 428.836 316.63 428.554 316.63H410.297Z" fill="black"/>
</svg>
