<svg width="414" height="147" viewBox="0 0 414 147" fill="none" xmlns="http://www.w3.org/2000/svg">
<path d="M38.7589 48.7025C42.3521 46.6368 46.7792 46.6368 50.3724 48.7025L83.3245 67.6471C86.9178 69.7129 89.1313 73.5306 89.1313 77.6622V115.551C89.1313 119.683 86.9178 123.501 83.3245 125.566L50.3724 144.511C46.7792 146.577 42.3521 146.577 38.7589 144.511L5.80677 125.566C2.21353 123.501 0 119.683 0 115.551V77.6622C0 73.5306 2.21353 69.7129 5.80677 67.6471L38.7589 48.7025Z" fill="#FFE600"/>
<path d="M109.739 97.7568C108.754 97.7568 107.949 97.4424 107.322 96.8137C106.696 96.185 106.383 95.3766 106.383 94.3887V6.81819C106.383 5.83021 106.696 5.02187 107.322 4.39316C108.038 3.76445 108.844 3.45009 109.739 3.45009H127.054C128.038 3.45009 128.844 3.76445 129.47 4.39316C130.186 5.02187 130.544 5.83021 130.544 6.81819V39.2866H163.564V6.81819C163.564 5.83021 163.877 5.02187 164.503 4.39316C165.13 3.76445 165.935 3.45009 166.919 3.45009H184.235C185.219 3.45009 186.025 3.76445 186.651 4.39316C187.277 5.02187 187.59 5.83021 187.59 6.81819V94.3887C187.59 95.3766 187.277 96.185 186.651 96.8137C186.025 97.4424 185.219 97.7568 184.235 97.7568H166.919C165.935 97.7568 165.13 97.4424 164.503 96.8137C163.877 96.185 163.564 95.3766 163.564 94.3887V60.8424H130.544V94.3887C130.544 95.3766 130.186 96.185 129.47 96.8137C128.844 97.4424 128.038 97.7568 127.054 97.7568H109.739Z" fill="black"/>
<path d="M209.754 97.7568C208.859 97.7568 208.054 97.4424 207.338 96.8137C206.711 96.0952 206.398 95.2868 206.398 94.3887V6.81819C206.398 5.83021 206.711 5.02187 207.338 4.39316C208.054 3.76445 208.859 3.45009 209.754 3.45009H227.74C228.725 3.45009 229.53 3.76445 230.156 4.39316C230.872 5.02187 231.23 5.83021 231.23 6.81819V94.3887C231.23 95.3766 230.872 96.185 230.156 96.8137C229.53 97.4424 228.725 97.7568 227.74 97.7568H209.754Z" fill="black"/>
<path d="M276.763 97.7568C273.899 97.7568 272.065 96.4095 271.259 93.715L243.877 7.49181L243.608 6.27929C243.608 5.56076 243.877 4.93205 244.414 4.39316C245.04 3.76445 245.756 3.45009 246.561 3.45009H263.206C264.458 3.45009 265.488 3.80935 266.293 4.52788C267.188 5.24641 267.769 6.05475 268.038 6.95291L287.098 69.1953L306.024 6.95291C306.293 6.05475 306.83 5.24641 307.635 4.52788C308.53 3.80935 309.604 3.45009 310.856 3.45009H327.635C328.351 3.45009 328.977 3.76445 329.514 4.39316C330.141 4.93205 330.454 5.56076 330.454 6.27929L330.185 7.49181L302.803 93.715C301.997 96.4095 300.163 97.7568 297.299 97.7568H276.763Z" fill="black"/>
<path d="M346.341 97.7568C345.446 97.7568 344.641 97.4424 343.925 96.8137C343.298 96.0952 342.985 95.2868 342.985 94.3887V6.81819C342.985 5.83021 343.298 5.02187 343.925 4.39316C344.641 3.76445 345.446 3.45009 346.341 3.45009H409.025C410.009 3.45009 410.815 3.76445 411.441 4.39316C412.068 5.02187 412.381 5.83021 412.381 6.81819V19.4822C412.381 20.3804 412.068 21.1887 411.441 21.9073C410.815 22.536 410.009 22.8503 409.025 22.8503H366.206V41.038H406.072C407.056 41.038 407.862 41.3973 408.488 42.1158C409.115 42.7445 409.428 43.5529 409.428 44.5409V56.2618C409.428 57.16 409.115 57.9683 408.488 58.6869C407.862 59.3156 407.056 59.6299 406.072 59.6299H366.206V78.3565H410.099C411.083 78.3565 411.889 78.6709 412.515 79.2996C413.141 79.9283 413.455 80.7367 413.455 81.7246V94.3887C413.455 95.2868 413.141 96.0952 412.515 96.8137C411.889 97.4424 411.083 97.7568 410.099 97.7568H346.341Z" fill="black"/>
<path d="M10.4273 34.9601C10.1225 34.9601 9.84807 34.855 9.60417 34.645C9.39075 34.4049 9.28405 34.1348 9.28405 33.8347V10.5173H1.14378C0.838905 10.5173 0.564514 10.4123 0.320611 10.2022C0.107196 9.96214 0.000488281 9.69205 0.000488281 9.39196V4.57543C0.000488281 4.24533 0.107196 3.97524 0.320611 3.76517C0.564514 3.55511 0.838905 3.45007 1.14378 3.45007H25.7475C26.0829 3.45007 26.3573 3.55511 26.5707 3.76517C26.7841 3.97524 26.8908 4.24533 26.8908 4.57543V9.39196C26.8908 9.72206 26.7841 9.99215 26.5707 10.2022C26.3573 10.4123 26.0829 10.5173 25.7475 10.5173H17.6072V33.8347C17.6072 34.1348 17.5005 34.4049 17.2871 34.645C17.0737 34.855 16.7993 34.9601 16.4639 34.9601H10.4273Z" fill="black"/>
<path d="M32.1903 34.9601C31.855 34.9601 31.5806 34.855 31.3672 34.645C31.1537 34.4349 31.047 34.1648 31.047 33.8347V4.57543C31.047 4.24533 31.1537 3.97524 31.3672 3.76517C31.6111 3.55511 31.8855 3.45007 32.1903 3.45007H38.0897C38.4251 3.45007 38.6995 3.55511 38.9129 3.76517C39.1568 3.97524 39.2788 4.24533 39.2788 4.57543V15.4239H50.5288V4.57543C50.5288 4.24533 50.6355 3.97524 50.8489 3.76517C51.0623 3.55511 51.3367 3.45007 51.6721 3.45007H57.5715C57.9069 3.45007 58.1812 3.55511 58.3947 3.76517C58.6081 3.97524 58.7148 4.24533 58.7148 4.57543V33.8347C58.7148 34.1648 58.6081 34.4349 58.3947 34.645C58.1812 34.855 57.9069 34.9601 57.5715 34.9601H51.6721C51.3367 34.9601 51.0623 34.855 50.8489 34.645C50.6355 34.4349 50.5288 34.1648 50.5288 33.8347V22.6262H39.2788V33.8347C39.2788 34.1648 39.1568 34.4349 38.9129 34.645C38.6995 34.855 38.4251 34.9601 38.0897 34.9601H32.1903Z" fill="black"/>
<path d="M66.2659 34.9601C65.961 34.9601 65.6866 34.855 65.4427 34.645C65.2293 34.4049 65.1226 34.1348 65.1226 33.8347V4.57543C65.1226 4.24533 65.2293 3.97524 65.4427 3.76517C65.6866 3.55511 65.961 3.45007 66.2659 3.45007H87.6227C87.958 3.45007 88.2324 3.55511 88.4458 3.76517C88.6592 3.97524 88.7659 4.24533 88.7659 4.57543V8.80677C88.7659 9.10687 88.6592 9.37695 88.4458 9.61703C88.2324 9.8271 87.958 9.93213 87.6227 9.93213H73.0342V16.0091H86.6165C86.9519 16.0091 87.2263 16.1291 87.4397 16.3692C87.6531 16.5792 87.7598 16.8493 87.7598 17.1794V21.0957C87.7598 21.3958 87.6531 21.6659 87.4397 21.9059C87.2263 22.116 86.9519 22.221 86.6165 22.221H73.0342V28.478H87.9885C88.3239 28.478 88.5983 28.583 88.8117 28.7931C89.0251 29.0032 89.1318 29.2733 89.1318 29.6034V33.8347C89.1318 34.1348 89.0251 34.4049 88.8117 34.645C88.5983 34.855 88.3239 34.9601 87.9885 34.9601H66.2659Z" fill="black"/>
<path d="M107.517 145.623C107.214 145.623 106.942 145.521 106.7 145.316C106.489 145.083 106.383 144.82 106.383 144.529V116.083C106.383 115.762 106.489 115.499 106.7 115.295C106.942 115.091 107.214 114.989 107.517 114.989H112.416C113.142 114.989 113.671 115.31 114.004 115.952L121.988 129.737L129.972 115.952C130.305 115.31 130.834 114.989 131.56 114.989H136.414C136.746 114.989 137.018 115.091 137.23 115.295C137.472 115.499 137.593 115.762 137.593 116.083V144.529C137.593 144.85 137.472 145.112 137.23 145.316C137.018 145.521 136.746 145.623 136.414 145.623H131.015C130.683 145.623 130.395 145.521 130.153 145.316C129.942 145.112 129.836 144.85 129.836 144.529V128.118L124.755 137.264C124.362 137.935 123.833 138.271 123.167 138.271H120.808C120.415 138.271 120.098 138.183 119.856 138.008C119.614 137.833 119.402 137.585 119.221 137.264L114.095 128.118V144.529C114.095 144.82 113.989 145.083 113.777 145.316C113.565 145.521 113.293 145.623 112.961 145.623H107.517Z" fill="black"/>
<path d="M142.135 145.623C141.893 145.623 141.666 145.535 141.455 145.36C141.273 145.156 141.182 144.937 141.182 144.704C141.182 144.529 141.197 144.397 141.228 144.31L151.888 116.214C151.979 115.864 152.175 115.572 152.478 115.339C152.78 115.106 153.173 114.989 153.657 114.989H160.371C160.855 114.989 161.248 115.106 161.551 115.339C161.853 115.572 162.05 115.864 162.14 116.214L172.755 144.31L172.846 144.704C172.846 144.937 172.74 145.156 172.529 145.36C172.347 145.535 172.12 145.623 171.848 145.623H166.268C165.543 145.623 165.059 145.316 164.817 144.704L163.048 140.24H150.936L149.212 144.704C148.97 145.316 148.471 145.623 147.715 145.623H142.135ZM161.233 133.938L157.014 122.385L152.795 133.938H161.233Z" fill="black"/>
<path d="M177.556 145.623C177.253 145.623 176.981 145.521 176.739 145.316C176.528 145.083 176.422 144.82 176.422 144.529V116.083C176.422 115.762 176.528 115.499 176.739 115.295C176.981 115.091 177.253 114.989 177.556 114.989H183.272C183.604 114.989 183.876 115.091 184.088 115.295C184.3 115.499 184.406 115.762 184.406 116.083V125.798L192.798 115.82C193.161 115.266 193.751 114.989 194.567 114.989H201.1C201.372 114.989 201.599 115.091 201.78 115.295C201.961 115.47 202.052 115.675 202.052 115.908C202.052 116.112 202.007 116.287 201.916 116.433L191.029 129.649L202.733 144.178C202.854 144.295 202.914 144.47 202.914 144.704C202.914 144.937 202.823 145.156 202.642 145.36C202.46 145.535 202.234 145.623 201.961 145.623H195.202C194.476 145.623 193.872 145.331 193.388 144.747L184.406 133.938V144.529C184.406 144.85 184.3 145.112 184.088 145.316C183.876 145.521 183.604 145.623 183.272 145.623H177.556Z" fill="black"/>
<path d="M207.636 145.623C207.333 145.623 207.061 145.521 206.819 145.316C206.608 145.083 206.502 144.82 206.502 144.529V116.083C206.502 115.762 206.608 115.499 206.819 115.295C207.061 115.091 207.333 114.989 207.636 114.989H228.821C229.153 114.989 229.425 115.091 229.637 115.295C229.849 115.499 229.955 115.762 229.955 116.083V120.197C229.955 120.488 229.849 120.751 229.637 120.984C229.425 121.189 229.153 121.291 228.821 121.291H214.35V127.199H227.823C228.155 127.199 228.427 127.315 228.639 127.549C228.851 127.753 228.957 128.016 228.957 128.336V132.144C228.957 132.436 228.851 132.698 228.639 132.932C228.427 133.136 228.155 133.238 227.823 133.238H214.35V139.321H229.183C229.516 139.321 229.788 139.423 230 139.627C230.212 139.831 230.318 140.094 230.318 140.415V144.529C230.318 144.82 230.212 145.083 230 145.316C229.788 145.521 229.516 145.623 229.183 145.623H207.636Z" fill="black"/>
<path d="M236.608 145.623C236.306 145.623 236.034 145.521 235.792 145.316C235.58 145.083 235.474 144.82 235.474 144.529V116.083C235.474 115.762 235.58 115.499 235.792 115.295C236.034 115.091 236.306 114.989 236.608 114.989H248.947C252.909 114.989 255.994 115.864 258.201 117.615C260.439 119.336 261.558 121.787 261.558 124.967C261.558 127.009 261.059 128.745 260.061 130.174C259.063 131.604 257.687 132.698 255.933 133.457L262.148 144.222C262.239 144.397 262.284 144.558 262.284 144.704C262.284 144.937 262.178 145.156 261.966 145.36C261.785 145.535 261.573 145.623 261.331 145.623H255.298C254.421 145.623 253.801 145.229 253.438 144.441L248.267 134.813H243.64V144.529C243.64 144.85 243.519 145.112 243.277 145.316C243.065 145.521 242.793 145.623 242.46 145.623H236.608ZM248.856 128.599C250.248 128.599 251.306 128.278 252.032 127.636C252.758 126.965 253.121 126.046 253.121 124.879C253.121 123.712 252.758 122.793 252.032 122.122C251.336 121.422 250.278 121.072 248.856 121.072H243.64V128.599H248.856Z" fill="black"/>
<path d="M278.679 146.06C275.806 146.06 273.341 145.652 271.284 144.835C269.228 144.018 267.67 142.953 266.612 141.64C265.584 140.298 265.039 138.839 264.979 137.264C264.979 137.031 265.07 136.826 265.251 136.651C265.463 136.447 265.705 136.345 265.977 136.345H271.693C272.056 136.345 272.343 136.418 272.555 136.564C272.797 136.681 273.038 136.87 273.28 137.133C273.674 137.891 274.309 138.519 275.186 139.015C276.063 139.51 277.227 139.758 278.679 139.758C280.403 139.758 281.718 139.496 282.625 138.971C283.533 138.446 283.986 137.731 283.986 136.826C283.986 136.185 283.744 135.659 283.26 135.251C282.807 134.842 282.081 134.478 281.083 134.157C280.085 133.836 278.603 133.471 276.637 133.063C273.008 132.333 270.286 131.269 268.472 129.868C266.688 128.439 265.795 126.411 265.795 123.785C265.795 122.005 266.31 120.415 267.338 119.015C268.366 117.615 269.833 116.521 271.738 115.733C273.643 114.945 275.866 114.551 278.407 114.551C281.038 114.551 283.321 114.989 285.256 115.864C287.192 116.739 288.659 117.848 289.657 119.19C290.685 120.503 291.229 121.801 291.29 123.085C291.29 123.348 291.199 123.566 291.018 123.741C290.836 123.916 290.609 124.004 290.337 124.004H284.349C283.986 124.004 283.684 123.946 283.442 123.829C283.23 123.712 283.034 123.523 282.852 123.26C282.671 122.589 282.172 122.02 281.355 121.553C280.569 121.086 279.586 120.853 278.407 120.853C277.046 120.853 276.002 121.086 275.276 121.553C274.551 122.02 274.188 122.706 274.188 123.61C274.188 124.223 274.384 124.733 274.777 125.142C275.201 125.55 275.866 125.93 276.773 126.28C277.711 126.601 279.042 126.936 280.765 127.286C283.578 127.782 285.816 128.409 287.479 129.168C289.173 129.897 290.413 130.86 291.199 132.056C291.985 133.223 292.379 134.697 292.379 136.476C292.379 138.431 291.789 140.138 290.609 141.597C289.46 143.026 287.842 144.135 285.755 144.922C283.699 145.681 281.34 146.06 278.679 146.06Z" fill="black"/>
<path d="M298.053 145.623C297.75 145.623 297.478 145.521 297.236 145.316C297.025 145.083 296.919 144.82 296.919 144.529V116.083C296.919 115.762 297.025 115.499 297.236 115.295C297.478 115.091 297.75 114.989 298.053 114.989H310.755C314.626 114.989 317.665 115.85 319.873 117.571C322.111 119.292 323.23 121.801 323.23 125.098C323.23 128.366 322.126 130.831 319.918 132.494C317.71 134.128 314.656 134.945 310.755 134.945H305.356V144.529C305.356 144.85 305.235 145.112 304.993 145.316C304.782 145.521 304.51 145.623 304.177 145.623H298.053ZM310.528 128.905C311.859 128.905 312.902 128.584 313.658 127.943C314.414 127.272 314.792 126.294 314.792 125.011C314.792 123.814 314.429 122.866 313.703 122.166C313.008 121.437 311.949 121.072 310.528 121.072H305.22V128.905H310.528Z" fill="black"/>
<path d="M323.589 145.623C323.347 145.623 323.121 145.535 322.909 145.36C322.727 145.156 322.637 144.937 322.637 144.704C322.637 144.529 322.652 144.397 322.682 144.31L333.343 116.214C333.433 115.864 333.63 115.572 333.932 115.339C334.235 115.106 334.628 114.989 335.112 114.989H341.826C342.309 114.989 342.703 115.106 343.005 115.339C343.307 115.572 343.504 115.864 343.595 116.214L354.21 144.31L354.301 144.704C354.301 144.937 354.195 145.156 353.983 145.36C353.802 145.535 353.575 145.623 353.303 145.623H347.723C346.997 145.623 346.513 145.316 346.271 144.704L344.502 140.24H332.39L330.666 144.704C330.424 145.316 329.925 145.623 329.169 145.623H323.589ZM342.687 133.938L338.469 122.385L334.25 133.938H342.687Z" fill="black"/>
<path d="M370.231 146.06C365.906 146.06 362.519 145.054 360.069 143.041C357.65 140.998 356.365 138.052 356.214 134.201C356.183 133.413 356.168 132.129 356.168 130.35C356.168 128.541 356.183 127.228 356.214 126.411C356.365 122.618 357.68 119.701 360.16 117.658C362.64 115.587 365.997 114.551 370.231 114.551C372.892 114.551 375.281 114.989 377.398 115.864C379.515 116.71 381.179 117.936 382.388 119.54C383.628 121.116 384.263 122.968 384.294 125.098V125.186C384.294 125.419 384.188 125.623 383.976 125.798C383.795 125.944 383.583 126.017 383.341 126.017H377.217C376.824 126.017 376.521 125.944 376.31 125.798C376.098 125.623 375.917 125.317 375.765 124.879C375.342 123.391 374.677 122.356 373.769 121.772C372.862 121.159 371.667 120.853 370.186 120.853C366.617 120.853 364.772 122.779 364.651 126.63C364.621 127.417 364.606 128.628 364.606 130.262C364.606 131.896 364.621 133.136 364.651 133.982C364.772 137.833 366.617 139.758 370.186 139.758C371.667 139.758 372.877 139.452 373.815 138.839C374.752 138.198 375.402 137.162 375.765 135.732C375.886 135.295 376.053 135.003 376.264 134.857C376.476 134.682 376.794 134.595 377.217 134.595H383.341C383.613 134.595 383.84 134.682 384.021 134.857C384.233 135.032 384.324 135.251 384.294 135.514C384.263 137.643 383.628 139.51 382.388 141.115C381.179 142.691 379.515 143.916 377.398 144.791C375.281 145.637 372.892 146.06 370.231 146.06Z" fill="black"/>
<path d="M390.198 145.623C389.895 145.623 389.623 145.521 389.381 145.316C389.169 145.083 389.064 144.82 389.064 144.529V116.083C389.064 115.762 389.169 115.499 389.381 115.295C389.623 115.091 389.895 114.989 390.198 114.989H411.382C411.715 114.989 411.987 115.091 412.199 115.295C412.411 115.499 412.517 115.762 412.517 116.083V120.197C412.517 120.488 412.411 120.751 412.199 120.984C411.987 121.189 411.715 121.291 411.382 121.291H396.911V127.199H410.384C410.717 127.199 410.989 127.315 411.201 127.549C411.413 127.753 411.519 128.016 411.519 128.336V132.144C411.519 132.436 411.413 132.698 411.201 132.932C410.989 133.136 410.717 133.238 410.384 133.238H396.911V139.321H411.745C412.078 139.321 412.35 139.423 412.562 139.627C412.774 139.831 412.879 140.094 412.879 140.415V144.529C412.879 144.82 412.774 145.083 412.562 145.316C412.35 145.521 412.078 145.623 411.745 145.623H390.198Z" fill="black"/>
</svg>
